<svg width="284" height="61" viewBox="0 0 284 61" fill="none" xmlns="http://www.w3.org/2000/svg">
<path d="M17.1315 32.2475C11.8773 30.082 3.64591 19.6315 0.0852105 14.5348C0.0378081 14.4669 0.0602055 14.3764 0.13118 14.3338L9.78559 8.54117C9.85925 8.49698 9.95477 8.52688 9.99029 8.60509C13.9601 17.3438 24.6279 23.9637 30.2037 26.4739C30.3603 26.5444 30.266 26.9705 30.0949 26.9867C26.4277 27.3338 20.0088 30.2958 17.2638 32.2321C17.224 32.2602 17.1765 32.266 17.1315 32.2475Z" fill="#D9D9D9"/>
<path d="M41.5589 30.2726C21.0589 27.1958 6.27853 44.2924 1.37907 53.3441C1.34574 53.4057 1.36394 53.479 1.41944 53.5217L9.77815 59.9515C9.85217 60.0084 9.96116 59.9776 9.99832 59.892C17.908 41.6576 34.1869 39.1521 41.5215 40.192C41.6081 40.2042 41.6816 40.1367 41.6816 40.0491V30.4139C41.6816 30.3433 41.6287 30.2831 41.5589 30.2726Z" fill="#D9D9D9"/>
<path d="M75.4855 44.2817C73.7417 44.2817 72.1453 43.8793 70.6965 43.0744C69.2746 42.2695 68.1344 41.0622 67.2758 39.4525C66.4441 37.8159 66.0283 35.75 66.0283 33.2549C66.0283 30.733 66.4307 28.6672 67.2356 27.0574C68.0673 25.4477 69.1941 24.2538 70.6161 23.4757C72.038 22.6709 73.6612 22.2684 75.4855 22.2684C77.605 22.2684 79.4697 22.7245 81.0794 23.6367C82.716 24.5489 84.0038 25.8233 84.9428 27.4599C85.9087 29.0964 86.3916 31.0281 86.3916 33.2549C86.3916 35.4818 85.9087 37.4269 84.9428 39.0903C84.0038 40.7268 82.716 42.0012 81.0794 42.9134C79.4697 43.8256 77.605 44.2817 75.4855 44.2817ZM63.5734 51.8073V22.5099H68.3624V27.5806L68.2014 33.2952L68.6039 39.0098V51.8073H63.5734ZM74.9221 39.9756C76.1294 39.9756 77.2026 39.7073 78.1416 39.1708C79.1075 38.6342 79.8721 37.8561 80.4355 36.8366C80.9989 35.8171 81.2806 34.6232 81.2806 33.2549C81.2806 31.8598 80.9989 30.6659 80.4355 29.6733C79.8721 28.6537 79.1075 27.8757 78.1416 27.3391C77.2026 26.8025 76.1294 26.5342 74.9221 26.5342C73.7148 26.5342 72.6282 26.8025 71.6624 27.3391C70.6965 27.8757 69.9319 28.6537 69.3685 29.6733C68.8051 30.6659 68.5234 31.8598 68.5234 33.2549C68.5234 34.6232 68.8051 35.8171 69.3685 36.8366C69.9319 37.8561 70.6965 38.6342 71.6624 39.1708C72.6282 39.7073 73.7148 39.9756 74.9221 39.9756ZM100.459 44.2817C98.0708 44.2817 95.9782 43.8122 94.1806 42.8732C92.4099 41.9073 91.0282 40.5927 90.0355 38.9293C89.0697 37.2659 88.5867 35.3744 88.5867 33.2549C88.5867 31.1086 89.0563 29.2172 89.9953 27.5806C90.9611 25.9172 92.2757 24.616 93.9392 23.6769C95.6294 22.7379 97.5477 22.2684 99.694 22.2684C101.787 22.2684 103.651 22.7245 105.288 23.6367C106.924 24.5489 108.212 25.8367 109.151 27.5001C110.09 29.1635 110.56 31.122 110.56 33.3757C110.56 33.5903 110.546 33.8318 110.52 34.1001C110.52 34.3683 110.506 34.6232 110.479 34.8647H92.5709V31.5245H107.823L105.851 32.5708C105.878 31.3367 105.623 30.2501 105.087 29.3111C104.55 28.372 103.812 27.6342 102.873 27.0977C101.961 26.5611 100.901 26.2928 99.694 26.2928C98.4599 26.2928 97.3733 26.5611 96.4343 27.0977C95.5221 27.6342 94.7977 28.3855 94.2611 29.3513C93.7513 30.2903 93.4965 31.4037 93.4965 32.6915V33.4964C93.4965 34.7842 93.7916 35.9244 94.3818 36.9171C94.9721 37.9098 95.8038 38.6744 96.8769 39.211C97.9501 39.7476 99.1842 40.0159 100.579 40.0159C101.787 40.0159 102.873 39.8281 103.839 39.4525C104.805 39.0769 105.663 38.4866 106.415 37.6817L109.111 40.7805C108.145 41.9073 106.924 42.7793 105.449 43.3963C104 43.9866 102.337 44.2817 100.459 44.2817ZM127.238 44V39.6537L126.956 38.7281V31.122C126.956 29.6464 126.513 28.5062 125.628 27.7013C124.743 26.8696 123.401 26.4538 121.604 26.4538C120.396 26.4538 119.202 26.6416 118.022 27.0172C116.868 27.3928 115.889 27.9159 115.084 28.5867L113.112 24.9245C114.266 24.0391 115.634 23.3818 117.217 22.9526C118.827 22.4965 120.49 22.2684 122.207 22.2684C125.319 22.2684 127.721 23.0196 129.411 24.5221C131.128 25.9977 131.986 28.2916 131.986 31.4037V44H127.238ZM120.477 44.2817C118.867 44.2817 117.458 44.0134 116.251 43.4768C115.044 42.9134 114.105 42.1488 113.434 41.1829C112.79 40.1903 112.468 39.0769 112.468 37.8427C112.468 36.6354 112.75 35.5488 113.313 34.583C113.904 33.6171 114.856 32.8525 116.171 32.2891C117.485 31.7257 119.229 31.444 121.402 31.444H127.64V34.7842H121.765C120.047 34.7842 118.894 35.0659 118.304 35.6293C117.713 36.1659 117.418 36.8366 117.418 37.6415C117.418 38.5537 117.78 39.2781 118.505 39.8147C119.229 40.3512 120.235 40.6195 121.523 40.6195C122.757 40.6195 123.857 40.3378 124.823 39.7744C125.816 39.211 126.527 38.3793 126.956 37.2793L127.801 40.2976C127.318 41.5586 126.446 42.5378 125.185 43.2354C123.951 43.9329 122.382 44.2817 120.477 44.2817ZM147.536 44.2817C145.283 44.2817 143.271 43.8122 141.5 42.8732C139.756 41.9073 138.388 40.5927 137.395 38.9293C136.402 37.2659 135.906 35.3744 135.906 33.2549C135.906 31.1086 136.402 29.2172 137.395 27.5806C138.388 25.9172 139.756 24.616 141.5 23.6769C143.271 22.7379 145.283 22.2684 147.536 22.2684C149.629 22.2684 151.467 22.6977 153.05 23.5562C154.66 24.3879 155.88 25.6221 156.712 27.2586L152.849 29.5123C152.205 28.4928 151.413 27.7416 150.474 27.2586C149.562 26.7757 148.569 26.5342 147.496 26.5342C146.262 26.5342 145.149 26.8025 144.156 27.3391C143.163 27.8757 142.385 28.6537 141.822 29.6733C141.258 30.6659 140.977 31.8598 140.977 33.2549C140.977 34.6501 141.258 35.8574 141.822 36.8769C142.385 37.8695 143.163 38.6342 144.156 39.1708C145.149 39.7073 146.262 39.9756 147.496 39.9756C148.569 39.9756 149.562 39.7342 150.474 39.2512C151.413 38.7683 152.205 38.0171 152.849 36.9976L156.712 39.2512C155.88 40.861 154.66 42.1085 153.05 42.9939C151.467 43.8524 149.629 44.2817 147.536 44.2817ZM170.042 44.2817C167.655 44.2817 165.562 43.8122 163.764 42.8732C161.994 41.9073 160.612 40.5927 159.619 38.9293C158.653 37.2659 158.171 35.3744 158.171 33.2549C158.171 31.1086 158.64 29.2172 159.579 27.5806C160.545 25.9172 161.86 24.616 163.523 23.6769C165.213 22.7379 167.131 22.2684 169.278 22.2684C171.37 22.2684 173.235 22.7245 174.872 23.6367C176.508 24.5489 177.796 25.8367 178.735 27.5001C179.674 29.1635 180.144 31.122 180.144 33.3757C180.144 33.5903 180.13 33.8318 180.103 34.1001C180.103 34.3683 180.09 34.6232 180.063 34.8647H162.155V31.5245H177.407L175.435 32.5708C175.462 31.3367 175.207 30.2501 174.67 29.3111C174.134 28.372 173.396 27.6342 172.457 27.0977C171.545 26.5611 170.485 26.2928 169.278 26.2928C168.044 26.2928 166.957 26.5611 166.018 27.0977C165.106 27.6342 164.382 28.3855 163.845 29.3513C163.335 30.2903 163.08 31.4037 163.08 32.6915V33.4964C163.08 34.7842 163.375 35.9244 163.966 36.9171C164.556 37.9098 165.388 38.6744 166.461 39.211C167.534 39.7476 168.768 40.0159 170.163 40.0159C171.37 40.0159 172.457 39.8281 173.423 39.4525C174.389 39.0769 175.247 38.4866 175.999 37.6817L178.695 40.7805C177.729 41.9073 176.508 42.7793 175.033 43.3963C173.584 43.9866 171.92 44.2817 170.042 44.2817ZM188.527 44L180.639 22.5099H185.388L192.148 41.4646H189.895L196.978 22.5099H201.203L208.085 41.4646H205.872L212.834 22.5099H217.301L209.373 44H204.544L198.266 27.2184H199.755L193.356 44H188.527ZM229.024 44.2817C226.824 44.2817 224.865 43.8122 223.148 42.8732C221.431 41.9073 220.076 40.5927 219.083 38.9293C218.091 37.2659 217.594 35.3744 217.594 33.2549C217.594 31.1086 218.091 29.2172 219.083 27.5806C220.076 25.9172 221.431 24.616 223.148 23.6769C224.865 22.7379 226.824 22.2684 229.024 22.2684C231.25 22.2684 233.222 22.7379 234.939 23.6769C236.683 24.616 238.038 25.9038 239.004 27.5403C239.997 29.1769 240.493 31.0818 240.493 33.2549C240.493 35.3744 239.997 37.2659 239.004 38.9293C238.038 40.5927 236.683 41.9073 234.939 42.8732C233.222 43.8122 231.25 44.2817 229.024 44.2817ZM229.024 39.9756C230.258 39.9756 231.358 39.7073 232.324 39.1708C233.289 38.6342 234.041 37.8561 234.577 36.8366C235.141 35.8171 235.422 34.6232 235.422 33.2549C235.422 31.8598 235.141 30.6659 234.577 29.6733C234.041 28.6537 233.289 27.8757 232.324 27.3391C231.358 26.8025 230.271 26.5342 229.064 26.5342C227.83 26.5342 226.73 26.8025 225.764 27.3391C224.825 27.8757 224.074 28.6537 223.51 29.6733C222.947 30.6659 222.665 31.8598 222.665 33.2549C222.665 34.6232 222.947 35.8171 223.51 36.8366C224.074 37.8561 224.825 38.6342 225.764 39.1708C226.73 39.7073 227.816 39.9756 229.024 39.9756ZM244.499 44V22.5099H249.288V28.4257L248.724 26.6952C249.368 25.2465 250.374 24.1465 251.742 23.3952C253.138 22.644 254.868 22.2684 256.934 22.2684V27.0574C256.719 27.0038 256.518 26.9769 256.33 26.9769C256.142 26.9501 255.955 26.9367 255.767 26.9367C253.862 26.9367 252.346 27.5001 251.219 28.6269C250.092 29.7269 249.529 31.3769 249.529 33.5769V44H244.499ZM264.501 39.211L264.622 32.8927L275.85 22.5099H281.887L272.349 32.0879L269.693 34.3013L264.501 39.211ZM260.396 44V14.1392H265.427V44H260.396ZM276.615 44L268.767 34.3013L271.946 30.2769L282.732 44H276.615Z" fill="#D9D9D9"/>
</svg>
