<svg width="283" height="53" viewBox="0 0 283 53" fill="none" xmlns="http://www.w3.org/2000/svg">
<path d="M17.1315 24.2475C11.8773 22.082 3.64591 11.6315 0.0852105 6.53476C0.0378081 6.4669 0.0602055 6.3764 0.13118 6.33382L9.78559 0.541172C9.85925 0.49698 9.95477 0.526883 9.99029 0.605085C13.9601 9.34379 24.6279 15.9637 30.2037 18.4739C30.3603 18.5444 30.266 18.9705 30.0949 18.9867C26.4277 19.3338 20.0088 22.2958 17.2638 24.2321C17.224 24.2602 17.1765 24.266 17.1315 24.2475Z" fill="#EEEEEE"/>
<path d="M41.5589 22.2726C21.0589 19.1958 6.27853 36.2924 1.37907 45.3441C1.34574 45.4057 1.36394 45.479 1.41944 45.5217L9.77815 51.9515C9.85217 52.0084 9.96116 51.9776 9.99832 51.892C17.908 33.6576 34.1869 31.1521 41.5215 32.192C41.6081 32.2042 41.6816 32.1367 41.6816 32.0491V22.4139C41.6816 22.3433 41.6287 22.2831 41.5589 22.2726Z" fill="#EEEEEE"/>
<path d="M75.4824 36.2822C73.7385 36.2822 72.1422 35.8797 70.6934 35.0748C69.2715 34.27 68.1313 33.0627 67.2727 31.4529C66.441 29.8163 66.0252 27.7505 66.0252 25.2554C66.0252 22.7335 66.4276 20.6676 67.2325 19.0579C68.0642 17.4481 69.191 16.2542 70.613 15.4762C72.0349 14.6713 73.6581 14.2689 75.4824 14.2689C77.6019 14.2689 79.4666 14.725 81.0763 15.6372C82.7129 16.5493 84.0007 17.8237 84.9397 19.4603C85.9055 21.0969 86.3885 23.0286 86.3885 25.2554C86.3885 27.4822 85.9055 29.4273 84.9397 31.0907C84.0007 32.7273 82.7129 34.0017 81.0763 34.9139C79.4666 35.8261 77.6019 36.2822 75.4824 36.2822ZM63.5703 43.8077V14.5103H68.3593V19.581L68.1983 25.2956L68.6008 31.0102V43.8077H63.5703ZM74.919 31.9761C76.1263 31.9761 77.1995 31.7078 78.1385 31.1712C79.1044 30.6346 79.869 29.8566 80.4324 28.8371C80.9958 27.8176 81.2775 26.6237 81.2775 25.2554C81.2775 23.8603 80.9958 22.6664 80.4324 21.6737C79.869 20.6542 79.1044 19.8762 78.1385 19.3396C77.1995 18.803 76.1263 18.5347 74.919 18.5347C73.7117 18.5347 72.6251 18.803 71.6593 19.3396C70.6934 19.8762 69.9288 20.6542 69.3654 21.6737C68.802 22.6664 68.5203 23.8603 68.5203 25.2554C68.5203 26.6237 68.802 27.8176 69.3654 28.8371C69.9288 29.8566 70.6934 30.6346 71.6593 31.1712C72.6251 31.7078 73.7117 31.9761 74.919 31.9761Z" fill="#EEEEEE"/>
<path d="M100.456 36.2822C98.0677 36.2822 95.9751 35.8126 94.1775 34.8736C92.4068 33.9078 91.0251 32.5932 90.0324 30.9297C89.0666 29.2663 88.5836 27.3749 88.5836 25.2554C88.5836 23.1091 89.0531 21.2176 89.9922 19.581C90.958 17.9176 92.2726 16.6164 93.936 15.6774C95.6263 14.7384 97.5446 14.2689 99.6909 14.2689C101.784 14.2689 103.648 14.725 105.285 15.6372C106.921 16.5493 108.209 17.8371 109.148 19.5005C110.087 21.164 110.557 23.1225 110.557 25.3761C110.557 25.5908 110.543 25.8322 110.516 26.1005C110.516 26.3688 110.503 26.6237 110.476 26.8651H92.5678V23.5249H107.82L105.848 24.5712C105.875 23.3371 105.62 22.2505 105.084 21.3115C104.547 20.3725 103.809 19.6347 102.87 19.0981C101.958 18.5615 100.898 18.2932 99.6909 18.2932C98.4568 18.2932 97.3702 18.5615 96.4312 19.0981C95.519 19.6347 94.7946 20.3859 94.258 21.3518C93.7482 22.2908 93.4934 23.4042 93.4934 24.692V25.4969C93.4934 26.7847 93.7885 27.9249 94.3787 28.9176C94.969 29.9102 95.8007 30.6749 96.8738 31.2115C97.947 31.748 99.1811 32.0163 100.576 32.0163C101.784 32.0163 102.87 31.8285 103.836 31.4529C104.802 31.0773 105.66 30.4871 106.412 29.6822L109.108 32.781C108.142 33.9078 106.921 34.7797 105.446 35.3968C103.997 35.987 102.334 36.2822 100.456 36.2822Z" fill="#EEEEEE"/>
<path d="M127.235 36.0005V31.6541L126.953 30.7285V23.1225C126.953 21.6469 126.51 20.5066 125.625 19.7018C124.739 18.8701 123.398 18.4542 121.6 18.4542C120.393 18.4542 119.199 18.642 118.019 19.0176C116.865 19.3932 115.886 19.9164 115.081 20.5871L113.109 16.925C114.263 16.0396 115.631 15.3823 117.214 14.953C118.824 14.4969 120.487 14.2689 122.204 14.2689C125.316 14.2689 127.717 15.0201 129.408 16.5225C131.125 17.9981 131.983 20.292 131.983 23.4042V36.0005H127.235ZM120.474 36.2822C118.864 36.2822 117.455 36.0139 116.248 35.4773C115.041 34.9139 114.102 34.1492 113.431 33.1834C112.787 32.1907 112.465 31.0773 112.465 29.8432C112.465 28.6359 112.747 27.5493 113.31 26.5834C113.9 25.6176 114.853 24.853 116.168 24.2895C117.482 23.7261 119.226 23.4444 121.399 23.4444H127.637V26.7847H121.761C120.044 26.7847 118.891 27.0664 118.3 27.6298C117.71 28.1664 117.415 28.8371 117.415 29.642C117.415 30.5541 117.777 31.2785 118.502 31.8151C119.226 32.3517 120.232 32.62 121.52 32.62C122.754 32.62 123.854 32.3383 124.82 31.7749C125.813 31.2115 126.524 30.3798 126.953 29.2798L127.798 32.298C127.315 33.559 126.443 34.5383 125.182 35.2358C123.948 35.9334 122.378 36.2822 120.474 36.2822Z" fill="#EEEEEE"/>
<path d="M147.533 36.2822C145.28 36.2822 143.268 35.8126 141.497 34.8736C139.753 33.9078 138.385 32.5932 137.392 30.9297C136.399 29.2663 135.903 27.3749 135.903 25.2554C135.903 23.1091 136.399 21.2176 137.392 19.581C138.385 17.9176 139.753 16.6164 141.497 15.6774C143.268 14.7384 145.28 14.2689 147.533 14.2689C149.626 14.2689 151.464 14.6981 153.047 15.5567C154.657 16.3884 155.877 17.6225 156.709 19.2591L152.846 21.5127C152.202 20.4932 151.41 19.742 150.471 19.2591C149.559 18.7762 148.566 18.5347 147.493 18.5347C146.259 18.5347 145.146 18.803 144.153 19.3396C143.16 19.8762 142.382 20.6542 141.819 21.6737C141.255 22.6664 140.974 23.8603 140.974 25.2554C140.974 26.6505 141.255 27.8578 141.819 28.8773C142.382 29.87 143.16 30.6346 144.153 31.1712C145.146 31.7078 146.259 31.9761 147.493 31.9761C148.566 31.9761 149.559 31.7346 150.471 31.2517C151.41 30.7688 152.202 30.0176 152.846 28.9981L156.709 31.2517C155.877 32.8614 154.657 34.109 153.047 34.9944C151.464 35.8529 149.626 36.2822 147.533 36.2822Z" fill="#EEEEEE"/>
<path d="M170.039 36.2822C167.652 36.2822 165.559 35.8126 163.761 34.8736C161.991 33.9078 160.609 32.5932 159.616 30.9297C158.65 29.2663 158.167 27.3749 158.167 25.2554C158.167 23.1091 158.637 21.2176 159.576 19.581C160.542 17.9176 161.856 16.6164 163.52 15.6774C165.21 14.7384 167.128 14.2689 169.275 14.2689C171.367 14.2689 173.232 14.725 174.869 15.6372C176.505 16.5493 177.793 17.8371 178.732 19.5005C179.671 21.164 180.141 23.1225 180.141 25.3761C180.141 25.5908 180.127 25.8322 180.1 26.1005C180.1 26.3688 180.087 26.6237 180.06 26.8651H162.152V23.5249H177.404L175.432 24.5712C175.459 23.3371 175.204 22.2505 174.667 21.3115C174.131 20.3725 173.393 19.6347 172.454 19.0981C171.542 18.5615 170.482 18.2932 169.275 18.2932C168.041 18.2932 166.954 18.5615 166.015 19.0981C165.103 19.6347 164.378 20.3859 163.842 21.3518C163.332 22.2908 163.077 23.4042 163.077 24.692V25.4969C163.077 26.7847 163.372 27.9249 163.963 28.9176C164.553 29.9102 165.384 30.6749 166.458 31.2115C167.531 31.748 168.765 32.0163 170.16 32.0163C171.367 32.0163 172.454 31.8285 173.42 31.4529C174.386 31.0773 175.244 30.4871 175.995 29.6822L178.692 32.781C177.726 33.9078 176.505 34.7797 175.03 35.3968C173.581 35.987 171.917 36.2822 170.039 36.2822Z" fill="#EEEEEE"/>
<path d="M188.523 36.0005L180.636 14.5103H185.384L192.145 33.4651H189.892L196.975 14.5103H201.2L208.082 33.4651H205.868L212.831 14.5103H217.298L209.37 36.0005H204.54L198.262 19.2188H199.751L193.353 36.0005H188.523Z" fill="#EEEEEE"/>
<path d="M229.021 36.2822C226.821 36.2822 224.862 35.8126 223.145 34.8736C221.428 33.9078 220.073 32.5932 219.08 30.9297C218.088 29.2663 217.591 27.3749 217.591 25.2554C217.591 23.1091 218.088 21.2176 219.08 19.581C220.073 17.9176 221.428 16.6164 223.145 15.6774C224.862 14.7384 226.821 14.2689 229.021 14.2689C231.247 14.2689 233.219 14.7384 234.936 15.6774C236.68 16.6164 238.035 17.9042 239.001 19.5408C239.994 21.1774 240.49 23.0822 240.49 25.2554C240.49 27.3749 239.994 29.2663 239.001 30.9297C238.035 32.5932 236.68 33.9078 234.936 34.8736C233.219 35.8126 231.247 36.2822 229.021 36.2822ZM229.021 31.9761C230.255 31.9761 231.355 31.7078 232.321 31.1712C233.286 30.6346 234.038 29.8566 234.574 28.8371C235.138 27.8176 235.419 26.6237 235.419 25.2554C235.419 23.8603 235.138 22.6664 234.574 21.6737C234.038 20.6542 233.286 19.8762 232.321 19.3396C231.355 18.803 230.268 18.5347 229.061 18.5347C227.827 18.5347 226.727 18.803 225.761 19.3396C224.822 19.8762 224.071 20.6542 223.507 21.6737C222.944 22.6664 222.662 23.8603 222.662 25.2554C222.662 26.6237 222.944 27.8176 223.507 28.8371C224.071 29.8566 224.822 30.6346 225.761 31.1712C226.727 31.7078 227.813 31.9761 229.021 31.9761Z" fill="#EEEEEE"/>
<path d="M244.495 36.0005V14.5103H249.284V20.4262L248.721 18.6957C249.365 17.2469 250.371 16.1469 251.739 15.3957C253.134 14.6445 254.865 14.2689 256.931 14.2689V19.0579C256.716 19.0042 256.515 18.9774 256.327 18.9774C256.139 18.9506 255.952 18.9371 255.764 18.9371C253.859 18.9371 252.343 19.5005 251.216 20.6274C250.089 21.7274 249.526 23.3774 249.526 25.5773V36.0005H244.495Z" fill="#EEEEEE"/>
<path d="M264.498 31.2115L264.619 24.8932L275.847 14.5103H281.883L272.346 24.0883L269.69 26.3017L264.498 31.2115ZM260.393 36.0005V6.13965H265.424V36.0005H260.393ZM276.611 36.0005L268.764 26.3017L271.943 22.2774L282.729 36.0005H276.611Z" fill="#EEEEEE"/>
<path d="M112.064 49.4507C111.701 49.4507 111.354 49.3999 111.023 49.2983C110.692 49.1922 110.429 49.0575 110.234 48.894L110.533 48.2246C110.718 48.3704 110.948 48.4919 111.222 48.5891C111.496 48.6863 111.776 48.7349 112.064 48.7349C112.307 48.7349 112.503 48.7084 112.654 48.6554C112.804 48.6024 112.914 48.5317 112.985 48.4433C113.056 48.3505 113.091 48.2467 113.091 48.1318C113.091 47.9904 113.04 47.8777 112.939 47.7938C112.837 47.7054 112.704 47.6369 112.541 47.5883C112.382 47.5353 112.203 47.4867 112.004 47.4425C111.81 47.3983 111.613 47.3475 111.414 47.2901C111.22 47.2282 111.041 47.1509 110.877 47.0581C110.718 46.9609 110.588 46.8327 110.486 46.6737C110.385 46.5146 110.334 46.3114 110.334 46.0639C110.334 45.8121 110.4 45.5823 110.533 45.3746C110.67 45.1625 110.875 44.9946 111.149 44.8709C111.427 44.7428 111.779 44.6787 112.203 44.6787C112.481 44.6787 112.757 44.7141 113.031 44.7848C113.305 44.8555 113.544 44.9571 113.747 45.0896L113.475 45.759C113.268 45.6353 113.053 45.5447 112.832 45.4873C112.612 45.4254 112.399 45.3945 112.196 45.3945C111.958 45.3945 111.763 45.4232 111.613 45.4807C111.467 45.5381 111.359 45.6132 111.288 45.706C111.222 45.7988 111.189 45.9049 111.189 46.0242C111.189 46.1655 111.237 46.2804 111.335 46.3688C111.436 46.4528 111.567 46.519 111.726 46.5676C111.889 46.6162 112.07 46.6648 112.269 46.7134C112.468 46.7576 112.665 46.8084 112.859 46.8659C113.058 46.9233 113.237 46.9984 113.396 47.0912C113.559 47.184 113.69 47.3099 113.787 47.469C113.889 47.6281 113.939 47.8291 113.939 48.0721C113.939 48.3196 113.871 48.5493 113.734 48.7614C113.601 48.9691 113.396 49.137 113.117 49.2652C112.839 49.3889 112.488 49.4507 112.064 49.4507Z" fill="#D9D9D9"/>
<path d="M119.367 46.6737H121.673V47.3829H119.367V46.6737ZM119.433 48.662H122.051V49.3845H118.572V44.745H121.958V45.4674H119.433V48.662Z" fill="#D9D9D9"/>
<path d="M128.957 49.4507C128.594 49.4507 128.261 49.3933 127.956 49.2784C127.656 49.1591 127.393 48.9934 127.167 48.7813C126.942 48.5648 126.767 48.3107 126.644 48.0191C126.52 47.7275 126.458 47.4094 126.458 47.0647C126.458 46.7201 126.52 46.4019 126.644 46.1103C126.767 45.8187 126.942 45.5668 127.167 45.3547C127.397 45.1382 127.664 44.9725 127.969 44.8577C128.274 44.7384 128.608 44.6787 128.97 44.6787C129.363 44.6787 129.717 44.7428 130.03 44.8709C130.349 44.9991 130.616 45.1868 130.832 45.4343L130.289 45.9645C130.108 45.7833 129.911 45.6508 129.699 45.5668C129.491 45.4785 129.262 45.4343 129.01 45.4343C128.767 45.4343 128.541 45.474 128.334 45.5536C128.126 45.6331 127.947 45.7458 127.797 45.8916C127.647 46.0374 127.53 46.2097 127.446 46.4086C127.366 46.6074 127.326 46.8261 127.326 47.0647C127.326 47.2989 127.366 47.5154 127.446 47.7142C127.53 47.9131 127.647 48.0876 127.797 48.2378C127.947 48.3837 128.124 48.4963 128.327 48.5759C128.53 48.6554 128.756 48.6952 129.003 48.6952C129.233 48.6952 129.454 48.6598 129.666 48.5891C129.882 48.514 130.088 48.3903 130.282 48.218L130.773 48.8609C130.53 49.0553 130.247 49.2033 129.924 49.3049C129.606 49.4021 129.284 49.4507 128.957 49.4507ZM129.958 48.7482V47.0117H130.773V48.8609L129.958 48.7482Z" fill="#D9D9D9"/>
<path d="M137.682 49.4507C137.046 49.4507 136.546 49.2718 136.184 48.9139C135.826 48.556 135.647 48.039 135.647 47.363V44.745H136.509V47.3298C136.509 47.807 136.611 48.1539 136.814 48.3704C137.021 48.5869 137.313 48.6952 137.689 48.6952C138.064 48.6952 138.354 48.5869 138.557 48.3704C138.76 48.1539 138.862 47.807 138.862 47.3298V44.745H139.71V47.363C139.71 48.039 139.529 48.556 139.167 48.9139C138.809 49.2718 138.314 49.4507 137.682 49.4507Z" fill="#D9D9D9"/>
<path d="M144.695 49.3845V44.745H146.603C147.014 44.745 147.366 44.8113 147.657 44.9438C147.953 45.0764 148.181 45.2664 148.34 45.5138C148.499 45.7613 148.579 46.0551 148.579 46.3953C148.579 46.7355 148.499 47.0294 148.34 47.2768C148.181 47.5198 147.953 47.7076 147.657 47.8402C147.366 47.9683 147.014 48.0324 146.603 48.0324H145.172L145.556 47.6413V49.3845H144.695ZM147.73 49.3845L146.557 47.701H147.478L148.658 49.3845H147.73ZM145.556 47.7341L145.172 47.3232H146.564C146.944 47.3232 147.229 47.2415 147.419 47.078C147.613 46.9145 147.71 46.6869 147.71 46.3953C147.71 46.0993 147.613 45.8717 147.419 45.7126C147.229 45.5536 146.944 45.474 146.564 45.474H145.172L145.556 45.0499V47.7341Z" fill="#D9D9D9"/>
<path d="M152.664 49.3845L154.752 44.745H155.6L157.695 49.3845H156.793L154.997 45.2023H155.342L153.552 49.3845H152.664ZM153.625 48.3107L153.857 47.6347H156.363L156.595 48.3107H153.625Z" fill="#D9D9D9"/>
<path d="M162.063 49.3845V44.745H162.772L165.681 48.3174H165.33V44.745H166.185V49.3845H165.476L162.566 45.8121H162.918V49.3845H162.063Z" fill="#D9D9D9"/>
<path d="M173.354 49.4507C173 49.4507 172.671 49.3933 172.366 49.2784C172.066 49.1591 171.803 48.9934 171.577 48.7813C171.356 48.5648 171.184 48.3107 171.06 48.0191C170.937 47.7275 170.875 47.4094 170.875 47.0647C170.875 46.7201 170.937 46.4019 171.06 46.1103C171.184 45.8187 171.359 45.5668 171.584 45.3547C171.809 45.1382 172.072 44.9725 172.373 44.8577C172.673 44.7384 173.002 44.6787 173.36 44.6787C173.74 44.6787 174.087 44.745 174.401 44.8775C174.714 45.0057 174.98 45.1979 175.196 45.4542L174.639 45.9778C174.471 45.7966 174.284 45.6618 174.076 45.5735C173.868 45.4807 173.643 45.4343 173.4 45.4343C173.157 45.4343 172.934 45.474 172.731 45.5536C172.532 45.6331 172.357 45.7458 172.207 45.8916C172.061 46.0374 171.946 46.2097 171.862 46.4086C171.783 46.6074 171.743 46.8261 171.743 47.0647C171.743 47.3033 171.783 47.522 171.862 47.7209C171.946 47.9197 172.061 48.092 172.207 48.2378C172.357 48.3837 172.532 48.4963 172.731 48.5759C172.934 48.6554 173.157 48.6952 173.4 48.6952C173.643 48.6952 173.868 48.651 174.076 48.5626C174.284 48.4698 174.471 48.3306 174.639 48.1451L175.196 48.6753C174.98 48.9271 174.714 49.1193 174.401 49.2519C174.087 49.3845 173.738 49.4507 173.354 49.4507ZM173.042 50.8956C172.923 50.8956 172.812 50.8823 172.711 50.8558C172.609 50.8337 172.516 50.8006 172.432 50.7564L172.585 50.3654C172.655 50.4007 172.726 50.4272 172.797 50.4449C172.872 50.4626 172.951 50.4714 173.035 50.4714C173.164 50.4714 173.254 50.4493 173.307 50.4051C173.36 50.3609 173.387 50.3035 173.387 50.2328C173.387 50.1665 173.358 50.1135 173.301 50.0737C173.247 50.034 173.159 50.0141 173.035 50.0141H172.83L173.009 49.3381H173.46L173.367 49.7092C173.561 49.7313 173.705 49.7932 173.798 49.8948C173.895 50.0008 173.943 50.1246 173.943 50.2659C173.943 50.4604 173.862 50.6128 173.698 50.7233C173.535 50.8381 173.316 50.8956 173.042 50.8956Z" fill="#D9D9D9"/>
<path d="M179.046 49.3845L181.134 44.745H181.982L184.077 49.3845H183.175L181.379 45.2023H181.724L179.934 49.3845H179.046ZM180.007 48.3107L180.239 47.6347H182.745L182.977 48.3107H180.007Z" fill="#D9D9D9"/>
<path d="M194.054 49.3845V44.745H196.082C196.586 44.745 197.028 44.8422 197.408 45.0366C197.788 45.231 198.084 45.5006 198.296 45.8452C198.508 46.1898 198.614 46.5964 198.614 47.0647C198.614 47.5287 198.508 47.9352 198.296 48.2842C198.084 48.6289 197.788 48.8984 197.408 49.0928C197.028 49.2872 196.586 49.3845 196.082 49.3845H194.054ZM194.916 48.6554H196.043C196.392 48.6554 196.692 48.5891 196.944 48.4566C197.2 48.324 197.397 48.1384 197.534 47.8998C197.675 47.6612 197.746 47.3829 197.746 47.0647C197.746 46.7422 197.675 46.4638 197.534 46.2296C197.397 45.991 197.2 45.8054 196.944 45.6729C196.692 45.5403 196.392 45.474 196.043 45.474H194.916V48.6554Z" fill="#D9D9D9"/>
<path d="M205.482 49.4507C205.119 49.4507 204.786 49.3911 204.481 49.2718C204.176 49.1525 203.911 48.9868 203.686 48.7747C203.46 48.5582 203.286 48.3063 203.162 48.0191C203.038 47.7275 202.976 47.4094 202.976 47.0647C202.976 46.7201 203.038 46.4041 203.162 46.1169C203.286 45.8253 203.46 45.5735 203.686 45.3614C203.911 45.1449 204.176 44.977 204.481 44.8577C204.786 44.7384 205.117 44.6787 205.475 44.6787C205.837 44.6787 206.169 44.7384 206.469 44.8577C206.774 44.977 207.039 45.1449 207.265 45.3614C207.49 45.5735 207.664 45.8253 207.788 46.1169C207.912 46.4041 207.974 46.7201 207.974 47.0647C207.974 47.4094 207.912 47.7275 207.788 48.0191C207.664 48.3107 207.49 48.5626 207.265 48.7747C207.039 48.9868 206.774 49.1525 206.469 49.2718C206.169 49.3911 205.84 49.4507 205.482 49.4507ZM205.475 48.6952C205.709 48.6952 205.926 48.6554 206.125 48.5759C206.323 48.4963 206.496 48.3837 206.642 48.2378C206.787 48.0876 206.9 47.9153 206.98 47.7209C207.063 47.522 207.105 47.3033 207.105 47.0647C207.105 46.8261 207.063 46.6096 206.98 46.4152C206.9 46.2164 206.787 46.044 206.642 45.8982C206.496 45.748 206.323 45.6331 206.125 45.5536C205.926 45.474 205.709 45.4343 205.475 45.4343C205.241 45.4343 205.024 45.474 204.825 45.5536C204.631 45.6331 204.459 45.748 204.309 45.8982C204.163 46.044 204.048 46.2164 203.964 46.4152C203.884 46.6096 203.845 46.8261 203.845 47.0647C203.845 47.2989 203.884 47.5154 203.964 47.7142C204.048 47.9131 204.163 48.0876 204.309 48.2378C204.454 48.3837 204.627 48.4963 204.825 48.5759C205.024 48.6554 205.241 48.6952 205.475 48.6952Z" fill="#D9D9D9"/>
<path d="M219.216 49.3845V45.474H217.678V44.745H221.615V45.474H220.077V49.3845H219.216Z" fill="#D9D9D9"/>
<path d="M226.039 49.3845V44.745H227.948C228.359 44.745 228.71 44.8113 229.002 44.9438C229.298 45.0764 229.525 45.2664 229.685 45.5138C229.844 45.7613 229.923 46.0551 229.923 46.3953C229.923 46.7355 229.844 47.0294 229.685 47.2768C229.525 47.5198 229.298 47.7076 229.002 47.8402C228.71 47.9683 228.359 48.0324 227.948 48.0324H226.516L226.901 47.6413V49.3845H226.039ZM229.075 49.3845L227.902 47.701H228.823L230.003 49.3845H229.075ZM226.901 47.7341L226.516 47.3232H227.908C228.288 47.3232 228.573 47.2415 228.763 47.078C228.958 46.9145 229.055 46.6869 229.055 46.3953C229.055 46.0993 228.958 45.8717 228.763 45.7126C228.573 45.5536 228.288 45.474 227.908 45.474H226.516L226.901 45.0499V47.7341Z" fill="#D9D9D9"/>
<path d="M234.009 49.3845L236.097 44.745H236.945L239.039 49.3845H238.138L236.342 45.2023H236.686L234.897 49.3845H234.009ZM234.97 48.3107L235.202 47.6347H237.707L237.939 48.3107H234.97Z" fill="#D9D9D9"/>
<path d="M243.407 49.3845V44.745H245.581C246.138 44.745 246.562 44.8555 246.854 45.0764C247.145 45.2929 247.291 45.5845 247.291 45.9512C247.291 46.1987 247.234 46.4108 247.119 46.5875C247.004 46.7598 246.849 46.8946 246.655 46.9918C246.465 47.0846 246.257 47.131 246.032 47.131L246.151 46.8924C246.412 46.8924 246.646 46.941 246.854 47.0382C247.061 47.131 247.225 47.268 247.344 47.4491C247.468 47.6303 247.53 47.8556 247.53 48.1252C247.53 48.5228 247.377 48.8321 247.072 49.0531C246.768 49.274 246.315 49.3845 245.714 49.3845H243.407ZM244.269 48.7084H245.661C245.983 48.7084 246.231 48.6554 246.403 48.5493C246.575 48.4433 246.661 48.2732 246.661 48.039C246.661 47.8092 246.575 47.6413 246.403 47.5353C246.231 47.4248 245.983 47.3696 245.661 47.3696H244.203V46.7002H245.488C245.789 46.7002 246.019 46.6472 246.178 46.5411C246.341 46.4351 246.423 46.276 246.423 46.0639C246.423 45.8474 246.341 45.6861 246.178 45.5801C246.019 45.474 245.789 45.421 245.488 45.421H244.269V48.7084Z" fill="#D9D9D9"/>
<path d="M251.571 49.3845L253.659 44.745H254.507L256.601 49.3845H255.7L253.904 45.2023H254.249L252.459 49.3845H251.571ZM252.532 48.3107L252.764 47.6347H255.269L255.501 48.3107H252.532Z" fill="#D9D9D9"/>
<path d="M260.969 49.3845V44.745H261.831V48.6554H264.257V49.3845H260.969Z" fill="#D9D9D9"/>
<path d="M271.976 44.745H272.837V49.3845H271.976V44.745ZM269.576 49.3845H268.715V44.745H269.576V49.3845ZM272.042 47.3961H269.504V46.6604H272.042V47.3961Z" fill="#D9D9D9"/>
<path d="M280.032 49.4507C279.67 49.4507 279.336 49.3911 279.031 49.2718C278.727 49.1525 278.461 48.9868 278.236 48.7747C278.011 48.5582 277.836 48.3063 277.713 48.0191C277.589 47.7275 277.527 47.4094 277.527 47.0647C277.527 46.7201 277.589 46.4041 277.713 46.1169C277.836 45.8253 278.011 45.5735 278.236 45.3614C278.461 45.1449 278.727 44.977 279.031 44.8577C279.336 44.7384 279.668 44.6787 280.026 44.6787C280.388 44.6787 280.719 44.7384 281.02 44.8577C281.325 44.977 281.59 45.1449 281.815 45.3614C282.04 45.5735 282.215 45.8253 282.339 46.1169C282.462 46.4041 282.524 46.7201 282.524 47.0647C282.524 47.4094 282.462 47.7275 282.339 48.0191C282.215 48.3107 282.04 48.5626 281.815 48.7747C281.59 48.9868 281.325 49.1525 281.02 49.2718C280.719 49.3911 280.39 49.4507 280.032 49.4507ZM280.026 48.6952C280.26 48.6952 280.476 48.6554 280.675 48.5759C280.874 48.4963 281.046 48.3837 281.192 48.2378C281.338 48.0876 281.451 47.9153 281.53 47.7209C281.614 47.522 281.656 47.3033 281.656 47.0647C281.656 46.8261 281.614 46.6096 281.53 46.4152C281.451 46.2164 281.338 46.044 281.192 45.8982C281.046 45.748 280.874 45.6331 280.675 45.5536C280.476 45.474 280.26 45.4343 280.026 45.4343C279.791 45.4343 279.575 45.474 279.376 45.5536C279.182 45.6331 279.009 45.748 278.859 45.8982C278.713 46.044 278.598 46.2164 278.514 46.4152C278.435 46.6096 278.395 46.8261 278.395 47.0647C278.395 47.2989 278.435 47.5154 278.514 47.7142C278.598 47.9131 278.713 48.0876 278.859 48.2378C279.005 48.3837 279.177 48.4963 279.376 48.5759C279.575 48.6554 279.791 48.6952 280.026 48.6952Z" fill="#D9D9D9"/>
</svg>
