<svg width="300" height="300" viewBox="0 0 300 300" fill="none" xmlns="http://www.w3.org/2000/svg">
<rect width="300" height="300" rx="150" fill="white"/>
<path d="M137.194 143.196C119.637 136.033 92.055 101.056 80.208 84.1144C80.0921 83.9486 80.1474 83.7282 80.3209 83.6242L112.757 64.2023C112.937 64.0947 113.17 64.1676 113.256 64.3583C126.714 94.0952 163.554 116.481 181.833 124.447C182.217 124.615 181.995 125.556 181.576 125.576C169.578 126.144 146.947 136.497 137.516 143.159C137.419 143.227 137.303 143.241 137.194 143.196Z" fill="black"/>
<path d="M137.194 143.196C119.637 136.033 92.055 101.056 80.208 84.1144C80.0921 83.9486 80.1474 83.7282 80.3209 83.6242L112.757 64.2023C112.937 64.0947 113.17 64.1676 113.256 64.3583C126.714 94.0952 163.554 116.481 181.833 124.447C182.217 124.615 181.995 125.556 181.576 125.576C169.578 126.144 146.947 136.497 137.516 143.159C137.419 143.227 137.303 143.241 137.194 143.196Z" fill="url(#paint0_linear_217_13)"/>
<path d="M218.7 136.615C150.21 126.287 100.846 183.355 84.5492 213.471C84.4677 213.621 84.5124 213.801 84.6481 213.905L112.739 235.469C112.92 235.607 113.185 235.532 113.276 235.323C139.68 174.381 194.2 166.113 218.61 169.63C218.821 169.66 219 169.495 219 169.282V136.96C219 136.787 218.871 136.64 218.7 136.615Z" fill="black"/>
<path d="M218.7 136.615C150.21 126.287 100.846 183.355 84.5492 213.471C84.4677 213.621 84.5124 213.801 84.6481 213.905L112.739 235.469C112.92 235.607 113.185 235.532 113.276 235.323C139.68 174.381 194.2 166.113 218.61 169.63C218.821 169.66 219 169.495 219 169.282V136.96C219 136.787 218.871 136.64 218.7 136.615Z" fill="url(#paint1_linear_217_13)"/>
<defs>
<linearGradient id="paint0_linear_217_13" x1="118.587" y1="140.091" x2="194.233" y2="212.695" gradientUnits="userSpaceOnUse">
<stop stop-color="#E52D0D"/>
<stop offset="1" stop-color="#D2611B"/>
</linearGradient>
<linearGradient id="paint1_linear_217_13" x1="118.587" y1="140.091" x2="194.233" y2="212.695" gradientUnits="userSpaceOnUse">
<stop stop-color="#E52D0D"/>
<stop offset="1" stop-color="#D2611B"/>
</linearGradient>
</defs>
</svg>
