<svg width="322" height="59" viewBox="0 0 322 59" fill="none" xmlns="http://www.w3.org/2000/svg">
<path d="M19.4653 27.0303C13.4954 24.5698 4.1426 12.6957 0.0968188 6.90458C0.0429587 6.82749 0.0684073 6.72466 0.14905 6.67627L11.1187 0.0944932C11.2024 0.0442812 11.3109 0.0782581 11.3513 0.167114C15.8619 10.0963 27.983 17.618 34.3183 20.4702C34.4963 20.5503 34.3891 21.0345 34.1948 21.0528C30.028 21.4472 22.7346 24.8128 19.6157 27.0129C19.5705 27.0448 19.5165 27.0514 19.4653 27.0303Z" fill="black"/>
<path d="M19.4653 27.0303C13.4954 24.5698 4.1426 12.6957 0.0968188 6.90458C0.0429587 6.82749 0.0684073 6.72466 0.14905 6.67627L11.1187 0.0944932C11.2024 0.0442812 11.3109 0.0782581 11.3513 0.167114C15.8619 10.0963 27.983 17.618 34.3183 20.4702C34.4963 20.5503 34.3891 21.0345 34.1948 21.0528C30.028 21.4472 22.7346 24.8128 19.6157 27.0129C19.5705 27.0448 19.5165 27.0514 19.4653 27.0303Z" fill="url(#paint0_linear_260_2)"/>
<path d="M47.2205 24.7864C23.9277 21.2905 7.13386 40.7161 1.56694 51.0009C1.52907 51.0709 1.54975 51.1542 1.61281 51.2027L11.1102 58.5085C11.1943 58.5732 11.3182 58.5381 11.3604 58.4408C20.3476 37.7224 38.8441 34.8756 47.1779 36.0571C47.2764 36.071 47.3599 35.9942 47.3599 35.8948V24.947C47.3599 24.8668 47.2998 24.7983 47.2205 24.7864Z" fill="black"/>
<path d="M47.2205 24.7864C23.9277 21.2905 7.13386 40.7161 1.56694 51.0009C1.52907 51.0709 1.54975 51.1542 1.61281 51.2027L11.1102 58.5085C11.1943 58.5732 11.3182 58.5381 11.3604 58.4408C20.3476 37.7224 38.8441 34.8756 47.1779 36.0571C47.2764 36.071 47.3599 35.9942 47.3599 35.8948V24.947C47.3599 24.8668 47.2998 24.7983 47.2205 24.7864Z" fill="url(#paint1_linear_260_2)"/>
<path d="M85.7648 40.7048C83.7834 40.7048 81.9696 40.2475 80.3234 39.333C78.7078 38.4185 77.4122 37.0467 76.4367 35.2176C75.4917 33.3581 75.0192 31.0108 75.0192 28.1758C75.0192 25.3103 75.4765 22.963 76.391 21.134C77.336 19.305 78.6163 17.9484 80.232 17.0644C81.8476 16.1499 83.6919 15.6926 85.7648 15.6926C88.1731 15.6926 90.2917 16.2108 92.1208 17.2473C93.9803 18.2837 95.4435 19.7317 96.5105 21.5913C97.6079 23.4508 98.1566 25.6456 98.1566 28.1758C98.1566 30.706 97.6079 32.9161 96.5105 34.8061C95.4435 36.6656 93.9803 38.1136 92.1208 39.1501C90.2917 40.1865 88.1731 40.7048 85.7648 40.7048ZM72.2299 49.2555V15.967H77.6713V21.7284L77.4884 28.2215L77.9457 34.7146V49.2555H72.2299ZM85.1247 35.8121C86.4965 35.8121 87.7158 35.5072 88.7828 34.8975C89.8802 34.2879 90.749 33.4038 91.3891 32.2454C92.0293 31.087 92.3494 29.7305 92.3494 28.1758C92.3494 26.5906 92.0293 25.2341 91.3891 24.1062C90.749 22.9478 89.8802 22.0638 88.7828 21.4541C87.7158 20.8444 86.4965 20.5396 85.1247 20.5396C83.7529 20.5396 82.5183 20.8444 81.4209 21.4541C80.3234 22.0638 79.4546 22.9478 78.8145 24.1062C78.1743 25.2341 77.8542 26.5906 77.8542 28.1758C77.8542 29.7305 78.1743 31.087 78.8145 32.2454C79.4546 33.4038 80.3234 34.2879 81.4209 34.8975C82.5183 35.5072 83.7529 35.8121 85.1247 35.8121Z" fill="black"/>
<path d="M114.14 40.7048C111.427 40.7048 109.049 40.1713 107.007 39.1043C104.995 38.0069 103.425 36.5132 102.297 34.6232C101.2 32.7332 100.651 30.5841 100.651 28.1758C100.651 25.7371 101.184 23.588 102.251 21.7284C103.349 19.8384 104.842 18.36 106.732 17.293C108.653 16.2261 110.832 15.6926 113.271 15.6926C115.649 15.6926 117.768 16.2108 119.627 17.2473C121.487 18.2837 122.95 19.747 124.017 21.637C125.084 23.527 125.617 25.7523 125.617 28.313C125.617 28.5569 125.602 28.8312 125.572 29.1361C125.572 29.4409 125.556 29.7305 125.526 30.0049H105.178V26.2096H122.508L120.267 27.3985C120.298 25.9962 120.008 24.7616 119.399 23.6947C118.789 22.6277 117.951 21.7894 116.884 21.1797C115.847 20.57 114.643 20.2652 113.271 20.2652C111.869 20.2652 110.634 20.57 109.567 21.1797C108.531 21.7894 107.708 22.643 107.098 23.7404C106.519 24.8073 106.229 26.0724 106.229 27.5357V28.4502C106.229 29.9134 106.565 31.209 107.235 32.3369C107.906 33.4648 108.851 34.3336 110.07 34.9433C111.29 35.553 112.692 35.8578 114.277 35.8578C115.649 35.8578 116.884 35.6444 117.981 35.2176C119.078 34.7909 120.054 34.1202 120.907 33.2057L123.971 36.7266C122.874 38.0069 121.487 38.9977 119.81 39.6988C118.164 40.3694 116.274 40.7048 114.14 40.7048Z" fill="black"/>
<path d="M144.567 40.3847V35.4463L144.247 34.3946V25.7523C144.247 24.0757 143.744 22.7801 142.738 21.8656C141.732 20.9206 140.208 20.4481 138.165 20.4481C136.794 20.4481 135.437 20.6615 134.096 21.0883C132.785 21.5151 131.672 22.1095 130.758 22.8716L128.517 18.7105C129.828 17.7045 131.383 16.9577 133.181 16.4699C135.01 15.9517 136.9 15.6926 138.851 15.6926C142.388 15.6926 145.116 16.5462 147.036 18.2533C148.987 19.9299 149.963 22.5363 149.963 26.0724V40.3847H144.567ZM136.885 40.7048C135.056 40.7048 133.456 40.3999 132.084 39.7902C130.712 39.1501 129.645 38.2813 128.883 37.1839C128.151 36.0559 127.786 34.7909 127.786 33.3886C127.786 32.0168 128.106 30.7822 128.746 29.6848C129.417 28.5874 130.499 27.7186 131.992 27.0784C133.486 26.4382 135.468 26.1181 137.937 26.1181H145.024V29.9134H138.348C136.397 29.9134 135.087 30.2335 134.416 30.8737C133.745 31.4833 133.41 32.2454 133.41 33.16C133.41 34.1964 133.822 35.0195 134.645 35.6292C135.468 36.2388 136.611 36.5437 138.074 36.5437C139.476 36.5437 140.726 36.2236 141.824 35.5834C142.951 34.9433 143.759 33.9983 144.247 32.7484L145.207 36.1779C144.659 37.6106 143.668 38.7233 142.235 39.5159C140.833 40.3085 139.05 40.7048 136.885 40.7048Z" fill="black"/>
<path d="M167.631 40.7048C165.071 40.7048 162.784 40.1713 160.772 39.1043C158.791 38.0069 157.236 36.5132 156.108 34.6232C154.98 32.7332 154.416 30.5841 154.416 28.1758C154.416 25.7371 154.98 23.588 156.108 21.7284C157.236 19.8384 158.791 18.36 160.772 17.293C162.784 16.2261 165.071 15.6926 167.631 15.6926C170.009 15.6926 172.097 16.1803 173.896 17.1558C175.725 18.1008 177.112 19.5031 178.057 21.3626L173.667 23.9233C172.936 22.7649 172.036 21.9113 170.969 21.3626C169.933 20.8139 168.805 20.5396 167.586 20.5396C166.183 20.5396 164.918 20.8444 163.79 21.4541C162.662 22.0638 161.778 22.9478 161.138 24.1062C160.498 25.2341 160.178 26.5906 160.178 28.1758C160.178 29.761 160.498 31.1328 161.138 32.2912C161.778 33.4191 162.662 34.2879 163.79 34.8975C164.918 35.5072 166.183 35.8121 167.586 35.8121C168.805 35.8121 169.933 35.5377 170.969 34.989C172.036 34.4403 172.936 33.5867 173.667 32.4283L178.057 34.989C177.112 36.818 175.725 38.2356 173.896 39.2415C172.097 40.217 170.009 40.7048 167.631 40.7048Z" fill="black"/>
<path d="M193.203 40.7048C190.49 40.7048 188.112 40.1713 186.07 39.1043C184.058 38.0069 182.488 36.5132 181.36 34.6232C180.263 32.7332 179.714 30.5841 179.714 28.1758C179.714 25.7371 180.248 23.588 181.314 21.7284C182.412 19.8384 183.906 18.36 185.796 17.293C187.716 16.2261 189.896 15.6926 192.334 15.6926C194.712 15.6926 196.831 16.2108 198.69 17.2473C200.55 18.2837 202.013 19.747 203.08 21.637C204.147 23.527 204.68 25.7523 204.68 28.313C204.68 28.5569 204.665 28.8312 204.635 29.1361C204.635 29.4409 204.62 29.7305 204.589 30.0049H184.241V26.2096H201.571L199.331 27.3985C199.361 25.9962 199.071 24.7616 198.462 23.6947C197.852 22.6277 197.014 21.7894 195.947 21.1797C194.91 20.57 193.706 20.2652 192.334 20.2652C190.932 20.2652 189.698 20.57 188.631 21.1797C187.594 21.7894 186.771 22.643 186.161 23.7404C185.582 24.8073 185.293 26.0724 185.293 27.5357V28.4502C185.293 29.9134 185.628 31.209 186.299 32.3369C186.969 33.4648 187.914 34.3336 189.134 34.9433C190.353 35.553 191.755 35.8578 193.34 35.8578C194.712 35.8578 195.947 35.6444 197.044 35.2176C198.142 34.7909 199.117 34.1202 199.971 33.2057L203.034 36.7266C201.937 38.0069 200.55 38.9977 198.873 39.6988C197.227 40.3694 195.337 40.7048 193.203 40.7048Z" fill="black"/>
<path d="M214.205 40.3847L205.243 15.967H210.639L218.321 37.5039H215.76L223.808 15.967H228.609L236.428 37.5039H233.913L241.824 15.967H246.9L237.892 40.3847H232.404L225.271 21.3169H226.963L219.693 40.3847H214.205Z" fill="black"/>
<path d="M260.219 40.7048C257.72 40.7048 255.494 40.1713 253.543 39.1043C251.592 38.0069 250.053 36.5132 248.925 34.6232C247.797 32.7332 247.233 30.5841 247.233 28.1758C247.233 25.7371 247.797 23.588 248.925 21.7284C250.053 19.8384 251.592 18.36 253.543 17.293C255.494 16.2261 257.72 15.6926 260.219 15.6926C262.75 15.6926 264.99 16.2261 266.941 17.293C268.923 18.36 270.462 19.8232 271.56 21.6827C272.687 23.5422 273.251 25.7066 273.251 28.1758C273.251 30.5841 272.687 32.7332 271.56 34.6232C270.462 36.5132 268.923 38.0069 266.941 39.1043C264.99 40.1713 262.75 40.7048 260.219 40.7048ZM260.219 35.8121C261.622 35.8121 262.872 35.5072 263.969 34.8975C265.066 34.2879 265.92 33.4038 266.53 32.2454C267.17 31.087 267.49 29.7305 267.49 28.1758C267.49 26.5906 267.17 25.2341 266.53 24.1062C265.92 22.9478 265.066 22.0638 263.969 21.4541C262.872 20.8444 261.637 20.5396 260.265 20.5396C258.863 20.5396 257.613 20.8444 256.516 21.4541C255.449 22.0638 254.595 22.9478 253.955 24.1062C253.315 25.2341 252.995 26.5906 252.995 28.1758C252.995 29.7305 253.315 31.087 253.955 32.2454C254.595 33.4038 255.449 34.2879 256.516 34.8975C257.613 35.5072 258.848 35.8121 260.219 35.8121Z" fill="black"/>
<path d="M277.803 40.3847V15.967H283.244V22.6887L282.604 20.7225C283.335 19.0763 284.479 17.8265 286.033 16.9729C287.618 16.1194 289.585 15.6926 291.932 15.6926V21.134C291.688 21.073 291.459 21.0425 291.246 21.0425C291.033 21.0121 290.819 20.9968 290.606 20.9968C288.441 20.9968 286.719 21.637 285.439 22.9173C284.158 24.1672 283.518 26.0419 283.518 28.5416V40.3847H277.803Z" fill="black"/>
<path d="M300.53 34.9433L300.667 27.7643L313.425 15.967H320.284L309.447 26.8498L306.429 29.3647L300.53 34.9433ZM295.866 40.3847V6.45593H301.582V40.3847H295.866ZM314.294 40.3847L305.377 29.3647L308.99 24.7921L321.244 40.3847H314.294Z" fill="black"/>
<path d="M127.327 55.6678C126.916 55.6678 126.521 55.6101 126.145 55.4946C125.768 55.3741 125.47 55.221 125.249 55.0353L125.588 54.2747C125.799 54.4403 126.06 54.5784 126.371 54.6888C126.682 54.7993 127.001 54.8545 127.327 54.8545C127.603 54.8545 127.827 54.8244 127.997 54.7642C128.168 54.7039 128.294 54.6236 128.374 54.5232C128.454 54.4177 128.495 54.2998 128.495 54.1692C128.495 54.0086 128.437 53.8806 128.321 53.7852C128.206 53.6848 128.055 53.6069 127.869 53.5517C127.689 53.4915 127.485 53.4362 127.259 53.386C127.039 53.3358 126.815 53.2781 126.589 53.2128C126.368 53.1425 126.165 53.0547 125.979 52.9493C125.799 52.8388 125.65 52.6932 125.535 52.5125C125.419 52.3317 125.362 52.1008 125.362 51.8196C125.362 51.5335 125.437 51.2724 125.588 51.0365C125.743 50.7955 125.977 50.6047 126.288 50.4641C126.604 50.3185 127.003 50.2457 127.485 50.2457C127.802 50.2457 128.115 50.2859 128.427 50.3662C128.738 50.4465 129.009 50.562 129.24 50.7126L128.931 51.4732C128.695 51.3327 128.452 51.2297 128.201 51.1645C127.95 51.0942 127.709 51.059 127.478 51.059C127.207 51.059 126.986 51.0917 126.815 51.1569C126.649 51.2222 126.526 51.3076 126.446 51.413C126.371 51.5184 126.333 51.6389 126.333 51.7745C126.333 51.9351 126.388 52.0656 126.499 52.1661C126.614 52.2614 126.762 52.3368 126.943 52.392C127.129 52.4472 127.335 52.5024 127.561 52.5577C127.787 52.6079 128.01 52.6656 128.231 52.7309C128.457 52.7961 128.66 52.8815 128.841 52.9869C129.027 53.0923 129.175 53.2354 129.285 53.4162C129.401 53.5969 129.458 53.8253 129.458 54.1015C129.458 54.3826 129.381 54.6437 129.225 54.8846C129.074 55.1206 128.841 55.3114 128.525 55.457C128.208 55.5976 127.809 55.6678 127.327 55.6678Z" fill="black"/>
<path d="M135.625 52.5125H138.246V53.3183H135.625V52.5125ZM135.701 54.7717H138.675V55.5925H134.722V50.321H138.57V51.1419H135.701V54.7717Z" fill="black"/>
<path d="M146.522 55.6678C146.11 55.6678 145.731 55.6026 145.385 55.472C145.043 55.3365 144.744 55.1482 144.488 54.9072C144.232 54.6612 144.034 54.3726 143.894 54.0412C143.753 53.7099 143.683 53.3484 143.683 52.9568C143.683 52.5652 143.753 52.2037 143.894 51.8724C144.034 51.541 144.232 51.2548 144.488 51.0139C144.75 50.7679 145.053 50.5796 145.4 50.4491C145.746 50.3135 146.125 50.2457 146.537 50.2457C146.984 50.2457 147.385 50.3185 147.742 50.4641C148.103 50.6097 148.407 50.8231 148.653 51.1042L148.035 51.7067C147.83 51.5008 147.606 51.3502 147.365 51.2548C147.129 51.1544 146.868 51.1042 146.582 51.1042C146.306 51.1042 146.05 51.1494 145.814 51.2398C145.578 51.3301 145.375 51.4582 145.204 51.6238C145.033 51.7895 144.9 51.9853 144.805 52.2112C144.714 52.4372 144.669 52.6857 144.669 52.9568C144.669 53.2229 144.714 53.4689 144.805 53.6948C144.9 53.9207 145.033 54.119 145.204 54.2897C145.375 54.4554 145.575 54.5834 145.806 54.6738C146.037 54.7642 146.293 54.8093 146.574 54.8093C146.836 54.8093 147.087 54.7692 147.328 54.6888C147.574 54.6035 147.807 54.4629 148.028 54.2671L148.585 54.9976C148.309 55.2185 147.988 55.3867 147.621 55.5022C147.26 55.6126 146.893 55.6678 146.522 55.6678ZM147.659 54.8696V52.8965H148.585V54.9976L147.659 54.8696Z" fill="black"/>
<path d="M156.436 55.6678C155.713 55.6678 155.145 55.4645 154.734 55.0579C154.327 54.6512 154.124 54.0638 154.124 53.2957V50.321H155.103V53.258C155.103 53.8002 155.218 54.1943 155.449 54.4403C155.685 54.6863 156.016 54.8093 156.443 54.8093C156.87 54.8093 157.199 54.6863 157.43 54.4403C157.661 54.1943 157.776 53.8002 157.776 53.258V50.321H158.74V53.2957C158.74 54.0638 158.534 54.6512 158.122 55.0579C157.716 55.4645 157.154 55.6678 156.436 55.6678Z" fill="black"/>
<path d="M164.404 55.5925V50.321H166.572C167.039 50.321 167.438 50.3963 167.77 50.547C168.106 50.6976 168.365 50.9135 168.545 51.1946C168.726 51.4757 168.817 51.8096 168.817 52.1962C168.817 52.5828 168.726 52.9166 168.545 53.1978C168.365 53.4739 168.106 53.6873 167.77 53.8379C167.438 53.9835 167.039 54.0563 166.572 54.0563H164.946L165.383 53.612V55.5925H164.404ZM167.853 55.5925L166.52 53.6797H167.566L168.907 55.5925H167.853ZM165.383 53.7174L164.946 53.2505H166.527C166.959 53.2505 167.283 53.1576 167.499 52.9718C167.72 52.7861 167.83 52.5275 167.83 52.1962C167.83 51.8598 167.72 51.6013 167.499 51.4205C167.283 51.2398 166.959 51.1494 166.527 51.1494H164.946L165.383 50.6674V53.7174Z" fill="black"/>
<path d="M173.459 55.5925L175.831 50.321H176.795L179.175 55.5925H178.15L176.11 50.8407H176.501L174.468 55.5925H173.459ZM174.551 54.3726L174.814 53.6044H177.661L177.925 54.3726H174.551Z" fill="black"/>
<path d="M184.138 55.5925V50.321H184.943L188.249 54.3801H187.85V50.321H188.822V55.5925H188.016L184.71 51.5335H185.109V55.5925H184.138Z" fill="black"/>
<path d="M196.967 55.6678C196.565 55.6678 196.191 55.6026 195.845 55.472C195.503 55.3365 195.204 55.1482 194.948 54.9072C194.697 54.6612 194.502 54.3726 194.361 54.0412C194.22 53.7099 194.15 53.3484 194.15 52.9568C194.15 52.5652 194.22 52.2037 194.361 51.8724C194.502 51.541 194.7 51.2548 194.956 51.0139C195.212 50.7679 195.511 50.5796 195.852 50.4491C196.194 50.3135 196.568 50.2457 196.974 50.2457C197.406 50.2457 197.8 50.321 198.157 50.4716C198.513 50.6172 198.814 50.8356 199.06 51.1268L198.428 51.7217C198.237 51.5159 198.023 51.3628 197.788 51.2624C197.552 51.1569 197.296 51.1042 197.019 51.1042C196.743 51.1042 196.49 51.1494 196.259 51.2398C196.033 51.3301 195.835 51.4582 195.664 51.6238C195.498 51.7895 195.368 51.9853 195.272 52.2112C195.182 52.4372 195.137 52.6857 195.137 52.9568C195.137 53.2279 195.182 53.4764 195.272 53.7023C195.368 53.9282 195.498 54.124 195.664 54.2897C195.835 54.4554 196.033 54.5834 196.259 54.6738C196.49 54.7642 196.743 54.8093 197.019 54.8093C197.296 54.8093 197.552 54.7591 197.788 54.6587C198.023 54.5533 198.237 54.3951 198.428 54.1843L199.06 54.7867C198.814 55.0729 198.513 55.2913 198.157 55.4419C197.8 55.5925 197.403 55.6678 196.967 55.6678ZM196.613 57.3095C196.477 57.3095 196.352 57.2945 196.236 57.2643C196.121 57.2392 196.015 57.2016 195.92 57.1514L196.093 56.7071C196.173 56.7472 196.254 56.7774 196.334 56.7974C196.419 56.8175 196.51 56.8276 196.605 56.8276C196.751 56.8276 196.854 56.8025 196.914 56.7523C196.974 56.7021 197.004 56.6368 197.004 56.5565C197.004 56.4812 196.972 56.4209 196.906 56.3757C196.846 56.3305 196.746 56.3079 196.605 56.3079H196.372L196.575 55.5398H197.087L196.982 55.9615C197.203 55.9866 197.366 56.0569 197.471 56.1724C197.582 56.2929 197.637 56.4335 197.637 56.5941C197.637 56.815 197.544 56.9882 197.358 57.1137C197.173 57.2443 196.924 57.3095 196.613 57.3095Z" fill="black"/>
<path d="M203.435 55.5925L205.807 50.321H206.771L209.151 55.5925H208.127L206.086 50.8407H206.477L204.444 55.5925H203.435ZM204.527 54.3726L204.79 53.6044H207.637L207.901 54.3726H204.527Z" fill="black"/>
<path d="M220.487 55.5925V50.321H222.792C223.364 50.321 223.866 50.4315 224.298 50.6524C224.73 50.8733 225.066 51.1795 225.307 51.5711C225.548 51.9627 225.668 52.4246 225.668 52.9568C225.668 53.4839 225.548 53.9458 225.307 54.3424C225.066 54.734 224.73 55.0403 224.298 55.2612C223.866 55.4821 223.364 55.5925 222.792 55.5925H220.487ZM221.466 54.7642H222.747C223.143 54.7642 223.485 54.6888 223.771 54.5382C224.062 54.3876 224.285 54.1768 224.441 53.9057C224.602 53.6345 224.682 53.3183 224.682 52.9568C224.682 52.5903 224.602 52.274 224.441 52.0079C224.285 51.7368 224.062 51.5259 223.771 51.3753C223.485 51.2247 223.143 51.1494 222.747 51.1494H221.466V54.7642Z" fill="black"/>
<path d="M233.472 55.6678C233.06 55.6678 232.681 55.6001 232.334 55.4645C231.988 55.329 231.687 55.1407 231.431 54.8997C231.175 54.6537 230.976 54.3675 230.836 54.0412C230.695 53.7099 230.625 53.3484 230.625 52.9568C230.625 52.5652 230.695 52.2062 230.836 51.8799C230.976 51.5485 231.175 51.2624 231.431 51.0214C231.687 50.7754 231.988 50.5846 232.334 50.4491C232.681 50.3135 233.057 50.2457 233.464 50.2457C233.876 50.2457 234.252 50.3135 234.594 50.4491C234.94 50.5846 235.241 50.7754 235.497 51.0214C235.753 51.2624 235.952 51.5485 236.092 51.8799C236.233 52.2062 236.303 52.5652 236.303 52.9568C236.303 53.3484 236.233 53.7099 236.092 54.0412C235.952 54.3726 235.753 54.6587 235.497 54.8997C235.241 55.1407 234.94 55.329 234.594 55.4645C234.252 55.6001 233.878 55.6678 233.472 55.6678ZM233.464 54.8093C233.73 54.8093 233.976 54.7642 234.202 54.6738C234.428 54.5834 234.624 54.4554 234.789 54.2897C234.955 54.119 235.083 53.9232 235.174 53.7023C235.269 53.4764 235.317 53.2279 235.317 52.9568C235.317 52.6857 235.269 52.4397 235.174 52.2188C235.083 51.9929 234.955 51.7971 234.789 51.6314C234.624 51.4607 234.428 51.3301 234.202 51.2398C233.976 51.1494 233.73 51.1042 233.464 51.1042C233.198 51.1042 232.952 51.1494 232.726 51.2398C232.505 51.3301 232.309 51.4607 232.139 51.6314C231.973 51.7971 231.842 51.9929 231.747 52.2188C231.657 52.4397 231.612 52.6857 231.612 52.9568C231.612 53.2229 231.657 53.4689 231.747 53.6948C231.842 53.9207 231.973 54.119 232.139 54.2897C232.304 54.4554 232.5 54.5834 232.726 54.6738C232.952 54.7642 233.198 54.8093 233.464 54.8093Z" fill="black"/>
<path d="M249.076 55.5925V51.1494H247.329V50.321H251.803V51.1494H250.055V55.5925H249.076Z" fill="black"/>
<path d="M256.83 55.5925V50.321H258.999C259.466 50.321 259.865 50.3963 260.196 50.547C260.532 50.6976 260.791 50.9135 260.972 51.1946C261.152 51.4757 261.243 51.8096 261.243 52.1962C261.243 52.5828 261.152 52.9166 260.972 53.1978C260.791 53.4739 260.532 53.6873 260.196 53.8379C259.865 53.9835 259.466 54.0563 258.999 54.0563H257.372L257.809 53.612V55.5925H256.83ZM260.279 55.5925L258.946 53.6797H259.993L261.333 55.5925H260.279ZM257.809 53.7174L257.372 53.2505H258.953C259.385 53.2505 259.709 53.1576 259.925 52.9718C260.146 52.7861 260.256 52.5275 260.256 52.1962C260.256 51.8598 260.146 51.6013 259.925 51.4205C259.709 51.2398 259.385 51.1494 258.953 51.1494H257.372L257.809 50.6674V53.7174Z" fill="black"/>
<path d="M265.885 55.5925L268.257 50.321H269.221L271.601 55.5925H270.577L268.536 50.8407H268.927L266.894 55.5925H265.885ZM266.977 54.3726L267.241 53.6044H270.087L270.351 54.3726H266.977Z" fill="black"/>
<path d="M276.564 55.5925V50.321H279.034C279.666 50.321 280.148 50.4465 280.48 50.6976C280.811 50.9436 280.977 51.2749 280.977 51.6916C280.977 51.9728 280.912 52.2138 280.781 52.4146C280.65 52.6104 280.475 52.7635 280.254 52.8739C280.038 52.9794 279.802 53.0321 279.546 53.0321L279.681 52.761C279.978 52.761 280.244 52.8162 280.48 52.9267C280.716 53.0321 280.901 53.1877 281.037 53.3936C281.178 53.5994 281.248 53.8554 281.248 54.1617C281.248 54.6135 281.075 54.965 280.728 55.216C280.382 55.467 279.867 55.5925 279.184 55.5925H276.564ZM277.543 54.8244H279.124C279.491 54.8244 279.772 54.7642 279.968 54.6437C280.163 54.5232 280.261 54.3299 280.261 54.0638C280.261 53.8027 280.163 53.612 279.968 53.4915C279.772 53.366 279.491 53.3032 279.124 53.3032H277.467V52.5426H278.928C279.27 52.5426 279.531 52.4823 279.712 52.3619C279.897 52.2414 279.99 52.0606 279.99 51.8196C279.99 51.5736 279.897 51.3904 279.712 51.2699C279.531 51.1494 279.27 51.0892 278.928 51.0892H277.543V54.8244Z" fill="black"/>
<path d="M285.84 55.5925L288.212 50.321H289.176L291.555 55.5925H290.531L288.49 50.8407H288.882L286.849 55.5925H285.84ZM286.932 54.3726L287.195 53.6044H290.042L290.305 54.3726H286.932Z" fill="black"/>
<path d="M296.518 55.5925V50.321H297.497V54.7642H300.254V55.5925H296.518Z" fill="black"/>
<path d="M309.024 50.321H310.003V55.5925H309.024V50.321ZM306.298 55.5925H305.319V50.321H306.298V55.5925ZM309.099 53.3333H306.215V52.4974H309.099V53.3333Z" fill="black"/>
<path d="M318.178 55.6678C317.767 55.6678 317.388 55.6001 317.041 55.4645C316.695 55.329 316.393 55.1407 316.137 54.8997C315.881 54.6537 315.683 54.3675 315.542 54.0412C315.402 53.7099 315.332 53.3484 315.332 52.9568C315.332 52.5652 315.402 52.2062 315.542 51.8799C315.683 51.5485 315.881 51.2624 316.137 51.0214C316.393 50.7754 316.695 50.5846 317.041 50.4491C317.388 50.3135 317.764 50.2457 318.171 50.2457C318.582 50.2457 318.959 50.3135 319.3 50.4491C319.647 50.5846 319.948 50.7754 320.204 51.0214C320.46 51.2624 320.658 51.5485 320.799 51.8799C320.939 52.2062 321.01 52.5652 321.01 52.9568C321.01 53.3484 320.939 53.7099 320.799 54.0412C320.658 54.3726 320.46 54.6587 320.204 54.8997C319.948 55.1407 319.647 55.329 319.3 55.4645C318.959 55.6001 318.585 55.6678 318.178 55.6678ZM318.171 54.8093C318.437 54.8093 318.683 54.7642 318.909 54.6738C319.135 54.5834 319.33 54.4554 319.496 54.2897C319.662 54.119 319.79 53.9232 319.88 53.7023C319.976 53.4764 320.023 53.2279 320.023 52.9568C320.023 52.6857 319.976 52.4397 319.88 52.2188C319.79 51.9929 319.662 51.7971 319.496 51.6314C319.33 51.4607 319.135 51.3301 318.909 51.2398C318.683 51.1494 318.437 51.1042 318.171 51.1042C317.905 51.1042 317.659 51.1494 317.433 51.2398C317.212 51.3301 317.016 51.4607 316.845 51.6314C316.68 51.7971 316.549 51.9929 316.454 52.2188C316.363 52.4397 316.318 52.6857 316.318 52.9568C316.318 53.2229 316.363 53.4689 316.454 53.6948C316.549 53.9207 316.68 54.119 316.845 54.2897C317.011 54.4554 317.207 54.5834 317.433 54.6738C317.659 54.7642 317.905 54.8093 318.171 54.8093Z" fill="black"/>
<defs>
<linearGradient id="paint0_linear_260_2" x1="13.1473" y1="25.9791" x2="38.9721" y2="50.7144" gradientUnits="userSpaceOnUse">
<stop stop-color="#E52D0D"/>
<stop offset="1" stop-color="#D2611B"/>
</linearGradient>
<linearGradient id="paint1_linear_260_2" x1="13.1473" y1="25.9791" x2="38.9721" y2="50.7144" gradientUnits="userSpaceOnUse">
<stop stop-color="#E52D0D"/>
<stop offset="1" stop-color="#D2611B"/>
</linearGradient>
</defs>
</svg>
